<?xml version="1.0" encoding="UTF-8"?><svg id="a" xmlns="http://www.w3.org/2000/svg" viewBox="0 0 20 16.5"><path d="m0,2.55h4.68v1.38H0v-1.38ZM0,0h4.68v1.38H0V0Zm8.39,5.09H0v1.38h8.08c.88,0,2.95.02,3.71,1.26v-.77c-.37-1.22-1.47-1.87-3.4-1.87h0Zm.02,2.55H0v1.38h8.08c1.97,0,3.2.08,3.71.35v-.61c-.39-.96-2.04-1.12-3.38-1.12h0Zm-.02,6.48H0v-1.38h8.08c.88,0,2.95-.02,3.71-1.26v.77c-.37,1.22-1.47,1.87-3.4,1.87h0Zm.02-2.55H0v-1.38h8.08c1.97,0,3.2-.08,3.71-.35v.61c-.39.96-2.04,1.12-3.38,1.12h0Zm5.42,4.93h6.17v-.85h-5.99c-.53,0-1.79-.02-2.24-.75v.47c.22.73.88,1.12,2.06,1.12h0Zm-.02-1.55h6.17v-.85h-5.97c-1.2,0-1.95-.04-2.24-.22v.37c.24.59,1.24.69,2.04.69h0Z" fill="#000"/></svg>