<?xml version="1.0" encoding="UTF-8"?><svg id="_Слой_1" xmlns="http://www.w3.org/2000/svg" xmlns:xlink="http://www.w3.org/1999/xlink" viewBox="0 0 20 15.94"><defs><linearGradient id="_Безымянный_градиент" x1="2.01" y1="-411.63" x2="19.49" y2="-425.5" gradientTransform="translate(0 -410) scale(1 -1)" gradientUnits="userSpaceOnUse"><stop offset="0" stop-color="#9013fe"/><stop offset="1" stop-color="#6610f2"/></linearGradient></defs><path d="m2.21,2.08c-.04-1.08.81-2.08,1.95-2.08h11.69c1.14,0,1.99,1,1.95,2.08-.04,1.04.01,2.39.35,3.49.34,1.1.91,1.8,1.85,1.89v1.02c-.94.09-1.51.79-1.85,1.89-.34,1.1-.39,2.45-.35,3.49.04,1.08-.81,2.08-1.95,2.08H4.15c-1.14,0-1.99-1-1.95-2.08.04-1.04-.01-2.39-.35-3.49-.34-1.1-.92-1.8-1.86-1.89v-1.02c.94-.09,1.52-.79,1.86-1.89.34-1.1.39-2.45.35-3.49Z" fill="url(#_Безымянный_градиент)"/><path d="m11.44,7.72h0c.87-.16,1.55-.98,1.55-1.87,0-.63-.24-1.17-.71-1.55-.46-.38-1.1-.58-1.87-.58h-3.49v8.52h3.5c.91,0,1.67-.22,2.19-.64.52-.42.79-1.03.79-1.77,0-1.12-.79-1.95-1.97-2.09Zm-1.63-.4h-1.49v-2.49h1.77c.97,0,1.51.43,1.51,1.2,0,.83-.64,1.29-1.79,1.29Zm2.19,2.41c0,.91-.64,1.38-1.84,1.38h-1.84v-2.75h1.76c1.27,0,1.92.46,1.92,1.37Z" fill="#fff"/></svg>