<?xml version="1.0" encoding="UTF-8"?>
<svg id="a" data-name="Слой 1" xmlns="http://www.w3.org/2000/svg" viewBox="0 0 105.82 120">
  <path d="m9.63,108l43.22,12,43.34-12.02L105.82,0H0l9.63,108ZM86.02,22.1l-6,67.45-27.12,7.52-.07.02-27.12-7.55-1.88-20.79h13.29l.94,10.57,14.74,3.98h.02l14.77-3.98,1.55-17.18H23.25l-1.2-13.24h48.23l1.2-13.57H20.86l-1.2-13.24h66.35Z" fill="#264de4"/>
  <polygon points="71.48 35.34 70.29 48.91 22.05 48.91 23.25 62.16 69.14 62.16 67.59 79.34 52.83 83.32 52.8 83.32 38.06 79.34 37.12 68.77 23.84 68.77 25.71 89.55 52.83 97.1 52.9 97.08 80.02 89.55 86.02 22.1 19.66 22.1 20.86 35.34 71.48 35.34" fill="#fff"/>
</svg>