<?xml version="1.0" encoding="UTF-8"?><svg id="_Слой_1" xmlns="http://www.w3.org/2000/svg" viewBox="0 0 20 20"><path d="m19.62,9.11L10.89.38c-.5-.5-1.32-.5-1.82,0l-1.81,1.81,2.3,2.3c.53-.18,1.15-.06,1.57.37.43.43.55,1.05.36,1.58l2.22,2.22c.54-.18,1.16-.07,1.58.36.6.6.6,1.57,0,2.17-.6.6-1.57.6-2.17,0-.45-.45-.56-1.11-.33-1.67l-2.07-2.07v5.44c.15.07.28.17.41.29.6.6.6,1.57,0,2.17-.6.6-1.57.6-2.17,0-.6-.6-.6-1.57,0-2.17.15-.15.32-.26.5-.33v-5.49c-.18-.07-.35-.19-.5-.33-.45-.45-.56-1.12-.33-1.68l-2.27-2.27L.38,9.07c-.5.5-.5,1.32,0,1.82l8.73,8.73c.5.5,1.32.5,1.82,0l8.69-8.69c.5-.5.5-1.32,0-1.82" fill="#f05133"/></svg>