<?xml version="1.0" encoding="UTF-8"?>
<svg xmlns="http://www.w3.org/2000/svg" viewBox="0 0 120 120.12">
  <path fill="#000"
    d="m60,0C26.85,0,0,26.85,0,60c0,28.2,19.35,51.6,45.45,58.2-.3-.75-.45-1.8-.45-2.85v-10.2h-7.5c-4.05,0-7.8-1.8-9.45-5.1-1.95-3.6-2.25-9.15-7.2-12.6-1.5-1.2-.3-2.4,1.35-2.25,3.15.9,5.7,3,8.1,6.15,2.4,3.15,3.45,3.9,7.95,3.9,2.1,0,5.4-.15,8.4-.6,1.65-4.2,4.5-7.95,7.95-9.75-20.1-2.4-29.7-12.3-29.7-25.8,0-5.85,2.55-11.4,6.75-16.2-1.35-4.65-3.15-14.25.6-18,9,0,14.4,5.85,15.75,7.35,4.5-1.5,9.45-2.4,14.55-2.4s10.05.9,14.55,2.4c1.35-1.5,6.75-7.35,15.75-7.35,3.6,3.6,1.95,13.35.45,18,4.2,4.65,6.6,10.35,6.6,16.2,0,13.5-9.45,23.4-29.4,25.5,5.55,2.85,9.45,10.95,9.45,16.95v13.66c0,.45-.15.9-.15,1.35,23.4-8.1,40.2-30.3,40.2-56.55C120,26.85,93.15,0,60,0h0Z" />
</svg>