<?xml version="1.0" encoding="UTF-8"?><svg id="a" xmlns="http://www.w3.org/2000/svg" viewBox="0 0 20 44.42"><path d="m17.03,33.97l.43-.86,2.35-21.15.19-.76c0-.57-2.43-1.06-5.91-1.28l.9-3.54,4.94-5.2h.01c.11-.17-.08-.52-.43-.82-.36-.31-.75-.44-.87-.3l-5.24,5.55-1.04,4.22c-.75-.03-1.54-.04-2.34-.04C4.49,9.79,0,10.42,0,11.2l2.26,21.89.49.9,1.32,2.19.47,6.9c0,.74,2.44,1.34,5.45,1.34s5.45-.6,5.45-1.34l.43-7.1,1.18-2.01" fill="#fff"/><path d="m15.43,43.08l.43-7.1,1.18-2.01s-2.68,1.1-7.16,1.1-7.12-1.07-7.12-1.07l1.32,2.19.47,6.9c0,.74,2.44,1.34,5.45,1.34s5.45-.6,5.45-1.34" fill="#d34a47"/><path d="m14.09,9.92l.9-3.54,4.95-5.21L18.63.06l-5.24,5.55-1.04,4.22c-.75-.03-1.54-.04-2.34-.04-5.53,0-10,.63-10,1.41s4.48,1.41,10,1.41,10-.63,10-1.41c0-.57-2.43-1.06-5.91-1.28" fill="#d34a47"/><path d="m13.57,11.9s-.19.04-.76.04-.97,0-1.14-.15c-.04-.04-.07-.12-.07-.17,0-.1.07-.16.16-.2l.09.14s-.06.03-.06.04c0,.08.58.13,1.03.12.44,0,.99-.04.99-.12,0-.02-.04-.04-.11-.06l.09-.13c.11.04.21.1.21.23,0,.2-.26.23-.43.26" fill="#fff"/><path d="m19.93,1.18c.13-.14-.06-.51-.42-.82-.36-.31-.75-.44-.87-.3-.13.14.06.51.42.82.36.31.75.44.87.3" fill="#d34a47"/><path d="m15.19,25.73c-.12-1.13,2.47-2.77,1.81-2.82-1.43.08-2.14,1.67-2.86,3.34-.26.61-1.17,3.22-1.76,2.9-.59-.32.77-2.47,1.15-3.74-.44.32-2.05,1.57-2.47.4-.67.57-2.09.87-1.93-.61-.36.63-1.15,1.51-2.11,1.14-1.26-.48.73-4.48,1.22-4.28.49.2-.1,1.11-.26,1.47-.34.78-.74,1.76-.47,1.96.45.34,1.68-1.3,1.71-1.34.23-.3.89-2.29,1.41-2.06.53.23-1.31,2.85-.63,3.37.14.1.71-.06,1.06-.44.22-.24.15-.78.89-2.56.75-1.78,1.41-4,1.92-3.83.51.17.09,1.31-.09,1.73-.86,1.99-2.35,5.28-1.65,5.03.7-.25,1.07-.26,1.76-1.07.69-.8.66-2.13,1.11-2.1.46.03.38.45.27.78.45-.52,2.14-1.6,2.55-.53.48,1.28-2.41,3.12-1.69,3.03.7-.09,1.85-.81,2.33-1.47l1.34-12.06s-1.35,1.12-9.94,1.12S.07,12,.07,12l1.14,11.01c.61-1.72,2.04-5.21,4.31-5.09,1.03.05,2.41,2.04,1.23,2.11-.5.03-.55-.99-1.14-1.14-.43-.11-1.02.24-1.41.61-.77.75-2.41,3.71-2.2,5.19.28,1.88,2.6-.65,2.99-1.41.28-.53.46-2.1,1.07-1.94.6.16-.05,1.79-.49,3.22-.49,1.61-.75,3.31-1.37,3.11-.61-.2.39-2.27.35-2.64-.58.53-1.65,1.89-3.01,1.22l.71,6.84s1.89,1.49,7.57,1.49,7.64-1.47,7.64-1.47l.88-7.92c-.72.7-3,1.95-3.15.54" fill="#d34a47"/></svg>