<svg width="120px" height="120px" xmlns="http://www.w3.org/2000/svg" viewBox="0 0 120 120">
  <path d="m0,0h120v120H0V0Z" fill="#f7df1e"/>
  <path d="m32.62,100.28l8.84-5.56c1.71,3.14,3.26,5.8,6.98,5.8s5.81-1.45,5.81-7.09v-38.34h10.85v38.5c0,11.68-6.59,17-16.2,17-8.68,0-13.72-4.67-16.28-10.31" fill="#1f2626"/>
  <path d="m71,99.07l8.84-5.32c2.33,3.95,5.35,6.85,10.7,6.85,4.5,0,7.36-2.34,7.36-5.56,0-3.87-2.95-5.24-7.91-7.49l-2.71-1.21c-7.83-3.46-13.02-7.81-13.02-17,0-8.46,6.2-14.9,15.89-14.9,6.9,0,11.86,2.5,15.43,9.02l-8.45,5.64c-1.86-3.46-3.88-4.83-6.98-4.83s-5.19,2.09-5.19,4.83c0,3.38,2.02,4.75,6.67,6.85l2.71,1.21c9.23,4.11,14.42,8.3,14.42,17.72,0,10.15-7.67,15.71-17.99,15.71s-16.59-4.99-19.77-11.52" fill="#1f2626"/>
</svg>