<?xml version="1.0" encoding="UTF-8"?>
<svg id="a" data-name="Слой 1" xmlns="http://www.w3.org/2000/svg" viewBox="0 0 120 113.92">
  <path d="m83.15,79.56c4.43-.46,7.79-4.28,7.64-8.86-.15-4.58-3.97-8.25-8.55-8.25h-.31c-4.73.15-8.4,4.12-8.25,8.86.15,2.29,1.07,4.28,2.44,5.65-5.19,10.23-13.13,17.71-25.04,23.98-8.09,4.27-16.49,5.8-24.89,4.73-6.87-.92-12.22-3.97-15.58-9.01-4.89-7.48-5.34-15.58-1.22-23.67,2.9-5.8,7.48-10.08,10.38-12.22-.61-1.99-1.53-5.34-1.99-7.79C-4.35,69.03-2.06,90.71,4.66,100.94c5.04,7.63,15.27,12.37,26.57,12.37,3.05,0,6.11-.31,9.16-1.07,19.55-3.82,34.36-15.42,42.76-32.68h0Zm26.88-18.94c-11.61-13.59-28.71-21.07-48.26-21.07h-2.44c-1.37-2.75-4.28-4.58-7.48-4.58h-.31c-4.73.15-8.4,4.12-8.25,8.86.15,4.58,3.97,8.25,8.55,8.25h.31c3.36-.15,6.26-2.29,7.48-5.19h2.75c11.61,0,22.6,3.36,32.53,9.93,7.64,5.04,13.13,11.61,16.19,19.55,2.6,6.41,2.44,12.68-.31,18.02-4.28,8.09-11.45,12.52-20.92,12.52-6.11,0-11.91-1.83-14.97-3.21-1.68,1.53-4.73,3.97-6.87,5.5,6.57,3.05,13.29,4.73,19.7,4.73,14.66,0,25.5-8.09,29.62-16.19,4.43-8.86,4.12-24.13-7.33-37.11h0Zm-77.57,21.53c.15,4.58,3.97,8.25,8.55,8.25h.31c4.73-.15,8.4-4.12,8.25-8.86-.15-4.58-3.97-8.25-8.55-8.25h-.31c-.31,0-.76,0-1.07.15-6.26-10.38-8.86-21.68-7.94-33.9.61-9.16,3.66-17.1,9.01-23.67,4.43-5.65,12.98-8.4,18.78-8.55,16.19-.31,23.06,19.85,23.52,27.95,1.99.46,5.34,1.53,7.64,2.29C88.8,12.83,73.53,0,58.87,0c-13.74,0-26.42,9.93-31.46,24.59-7.02,19.55-2.44,38.33,6.11,53.14-.76,1.07-1.22,2.75-1.07,4.43h0Z" fill="#764abc"/>
</svg>