<?xml version="1.0" encoding="UTF-8"?><svg id="a" xmlns="http://www.w3.org/2000/svg" viewBox="0 0 20 15"><path d="m17.22,8.62c-.7,0-1.3.17-1.81.42-.19-.37-.37-.7-.41-.94-.04-.28-.08-.45-.04-.79.04-.34.24-.81.24-.85s-.04-.21-.45-.21-.75.08-.79.18-.12.35-.17.6c-.07.37-.8,1.67-1.22,2.35-.14-.27-.25-.5-.28-.69-.04-.28-.08-.45-.04-.79.04-.34.24-.81.24-.85s-.04-.21-.45-.21-.75.08-.79.18-.08.35-.17.6c-.08.24-1.06,2.42-1.32,2.98-.13.29-.25.52-.33.68h0s0,.01-.02.03c-.07.14-.11.21-.11.21h0c-.06.1-.11.19-.14.19-.02,0-.06-.26,0-.62.15-.76.49-1.93.49-1.97,0-.02.07-.23-.23-.33-.29-.11-.39.07-.41.07s-.04.06-.04.06c0,0,.32-1.32-.61-1.32-.58,0-1.37.63-1.77,1.2-.25.14-.78.42-1.34.73-.22.12-.44.24-.65.35-.02-.02-.03-.03-.04-.05-1.12-1.19-3.19-2.04-3.1-3.64.03-.58.23-2.12,3.97-3.98,3.08-1.52,5.52-1.1,5.95-.17.61,1.33-1.31,3.8-4.49,4.16-1.21.14-1.85-.33-2.01-.51-.17-.18-.19-.19-.26-.16-.1.06-.04.22,0,.31.1.25.49.69,1.15.9.58.19,2.01.3,3.73-.37,1.92-.75,3.43-2.82,2.99-4.55C12.08.07,9.16-.51,6.39.48c-1.64.58-3.43,1.51-4.71,2.7C.16,4.61-.08,5.84.02,6.36c.35,1.84,2.89,3.04,3.91,3.93-.05.03-.1.06-.14.08-.51.25-2.44,1.26-2.93,2.34-.55,1.21.09,2.08.51,2.2,1.3.36,2.65-.29,3.37-1.36.72-1.07.63-2.47.3-3.11,0,0,0-.02-.02-.02.13-.08.27-.16.4-.23.26-.15.52-.3.73-.41-.12.34-.22.75-.26,1.33-.06.69.23,1.58.6,1.93.17.15.36.16.48.16.43,0,.63-.36.84-.78.26-.52.5-1.12.5-1.12,0,0-.3,1.63.51,1.63.29,0,.59-.38.72-.57h0s0,0,.02-.03c.03-.05.05-.08.05-.08h0c.12-.21.38-.68.77-1.45.5-.99.99-2.24.99-2.24,0,0,.04.3.19.81.09.3.27.62.42.94-.12.17-.19.26-.19.26h0c-.1.13-.2.26-.31.39-.4.48-.87,1.02-.94,1.18-.08.19-.06.32.09.43.11.08.3.09.49.08.36-.03.61-.11.73-.17.19-.07.42-.18.63-.33.39-.29.63-.7.61-1.25-.01-.3-.11-.6-.23-.88.04-.05.07-.1.11-.15.62-.9,1.1-1.89,1.1-1.89,0,0,.04.3.19.81.07.26.22.53.35.8-.58.47-.94,1.02-1.07,1.38-.23.67-.05.96.29,1.03.15.03.37-.04.53-.11.21-.07.45-.18.68-.35.39-.29.77-.69.75-1.23-.01-.25-.08-.49-.17-.73.49-.21,1.13-.32,1.94-.22,1.74.21,2.08,1.29,2.02,1.75-.07.46-.43.71-.55.78s-.16.1-.15.16c.02.08.07.08.18.06.14-.03.91-.37.95-1.21.06-1.07-.97-2.25-2.78-2.24,0,0,0,0,0,0ZM3.81,13.15c-.58.63-1.38.87-1.73.67-.37-.22-.23-1.14.48-1.81.43-.41.99-.78,1.36-1.01.08-.05.21-.12.36-.22.03-.02.04-.02.04-.02h0s.06-.04.09-.06c.26.95.01,1.79-.6,2.45h0Zm4.2-2.86c-.2.49-.62,1.74-.88,1.67-.22-.06-.35-1.01-.04-1.95.16-.47.49-1.03.68-1.25.31-.35.66-.47.75-.33.11.19-.38,1.55-.51,1.85h0Zm3.47,1.66c-.08.04-.17.07-.2.05-.03-.02.04-.07.04-.07,0,0,.44-.47.61-.68.1-.12.22-.27.34-.44v.05c0,.56-.54.94-.78,1.09,0,0,0,0,0,0Zm2.68-.61c-.06-.04-.05-.19.16-.65.08-.18.27-.48.6-.77.04.12.06.23.06.34,0,.71-.51.97-.81,1.08Z" fill="#cd6799"/></svg>