<?xml version="1.0" encoding="UTF-8"?><svg id="a" xmlns="http://www.w3.org/2000/svg" viewBox="0 0 20 19.99"><path d="m11.46,19.71c.03-.07.1-.11.16-.17.84-.88,1.68-1.75,2.51-2.64.26-.24.46-.53.58-.86s.17-.68.14-1.03c-.03-.15-.06-.3-.1-.44-.22.21-.43.41-.65.6-.33.3-.65.61-.99.91-.19.2-.45.33-.72.39s-.56.02-.81-.09c-.26-.09-.48-.26-.65-.49-.16-.22-.26-.49-.27-.76,0-.03-.02-.07-.03-.1-.25.21-.49.41-.73.61l-4.97,4.21s-.07.06-.1.09h6.63,0s-.02-.16.01-.23h0Z" fill="#ffcebf"/><path d="m4.52,19.71c.06-.08.13-.14.21-.2l6.88-5.84c.47-.4.94-.8,1.4-1.2.06-.04.1-.09.13-.16.11-.48.13-.99.05-1.48-.07.05-.11.07-.14.11-.56.5-1.12,1.01-1.69,1.51-.19.19-.43.31-.69.35s-.53,0-.77-.12c-.24-.11-.44-.3-.58-.53s-.2-.49-.19-.76v-.23c-.1.07-.18.13-.25.18-2.75,2.2-5.51,4.41-8.26,6.61-.12.1-.27.32-.43.1-.16-.21.08-.3.21-.4,2.93-2.35,5.87-4.71,8.81-7.06.48-.38.51-.54.2-1.15l-.18.17c-.51.47-1.02.94-1.52,1.42-.2.2-.46.33-.74.39s-.57.04-.84-.06-.5-.27-.67-.5-.28-.5-.3-.78c-.09.07-.18.12-.25.18L.51,13.66c-.07.07-.16.13-.25.18-.07.02-.15.02-.21,0v6.11h4.47s-.02-.08-.02-.12c0-.04.01-.08.03-.11h0Z" fill="#ffcebf"/><path d="m16.59.3c-.12.4-.24.8-.34,1.2-.1.28-.09.59.03.87s.34.5.61.62c.84.44,1.78.64,2.73.57V.37c0-.07,0-.14.01-.21.02-.04.04-.07.07-.11h-3.11c.05.05.03.15,0,.25h0Z" fill="#ff6196"/><path d="m10.34,7.17c-.01.36-.14.7-.36.98-.78,1-1.67,1.91-2.66,2.71-.16.15-.36.24-.58.27s-.43-.02-.62-.12c-.19-.08-.35-.22-.46-.39-.11-.17-.16-.38-.15-.58.02-.25.13-.49.3-.68,1.11-1.05,2.31-2.01,3.58-2.85.08-.06.19-.1.29-.11.11,0,.21.02.3.08.12.07.21.17.27.3s.09.26.08.4Z" fill="#ff87af"/><path d="m9.48,11.49c-.02-.16,0-.32.06-.47.05-.15.14-.28.26-.39,1.08-1,2.25-1.91,3.48-2.72.04-.02.07-.05.11-.07.11-.08.24-.12.37-.11.13,0,.26.05.36.14.1.08.17.2.2.32.03.12.02.26-.03.38-.15.52-.44.99-.83,1.36-.79.78-1.6,1.55-2.43,2.3-.12.13-.29.21-.46.23-.18.02-.36,0-.51-.1-.16-.08-.3-.21-.4-.36s-.16-.33-.18-.51h0Z" fill="#ff87af"/><path d="m14.64,11.97c-.2.21-.4.42-.6.64-.06.08-.1.17-.14.27.1.03.23.11.31.08.44-.15.86-.32,1.34-.51-.1.24-.18.46-.29.66-.46.77-1.03,1.46-1.69,2.05-.25.24-.52.48-.79.7-.14.12-.32.2-.5.23-.18.03-.37.01-.55-.05s-.33-.18-.45-.32-.19-.32-.22-.51c-.01-.1,0-.21.03-.31.03-.1.08-.19.14-.27.97-1.05,2.08-1.97,3.3-2.73.01,0,.03,0,.05,0l.07.07h0Z" fill="#ff87af"/><path d="m16.28,9.12l1.22-5.43.86.2-.44,1.34c-.41,1.25-.83,2.5-1.23,3.75-.08.23-.18.27-.4.13Z" fill="#ff6196"/><path d="m14.9,12.31c.13-.49.26-.95.37-1.41.1-.45.31-.87.59-1.23.17-.23.37-.14.57-.09.18.04.23.18.24.36.03.49-.12.97-.42,1.36-.36.44-.82.79-1.34,1.01h0Z" fill="#ff6196"/><path d="m19.99.64c0-.16,0-.32-.01-.48-.01-.04-.04-.08-.08-.11-.03-.02-.07-.04-.11-.05-.02,0-.05.02-.08.05-.03.03-.05.07-.07.11-.02.07-.02.14-.01.21v3.19c-.94.07-1.89-.13-2.73-.57-.27-.12-.49-.34-.61-.62-.12-.28-.13-.59-.03-.87.11-.4.22-.8.34-1.2.03-.09.04-.19,0-.25-.02-.03-.06-.04-.1-.04-.05,0-.09.02-.13.04-.05.03-.1.08-.12.13-.14.43-.27.86-.38,1.3-.04.17-.05.35-.03.53.03.32.15.62.34.87.19.25.46.44.76.55.13.06.21.11.18.29-.05.22-.1.45-.15.68-.35,1.53-.7,3.07-1.04,4.6,0,.07-.04.13-.09.18-.23.18-.42.4-.56.66-.18.33-.31.69-.38,1.07-.01.12-.06.23-.12.33-.07.1-.16.18-.27.23-.3.15-.57.34-.9.55.02-.4.02-.8-.01-1.19-.02-.12-.02-.25.01-.37.03-.12.1-.23.19-.32.43-.43.75-.97.9-1.57.04-.14.06-.28.04-.43-.02-.14-.08-.28-.16-.4s-.19-.21-.32-.28c-.13-.07-.27-.1-.41-.11-.23,0-.46.06-.66.19-.68.46-1.35.95-2.01,1.45-.39.29-.76.62-1.14.93-.02-.02-.03-.04-.04-.06,0-.05-.02-.1-.04-.15-.32-.49-.1-.84.25-1.21.36-.37.55-.87.55-1.39.01-.26-.07-.52-.23-.73-.09-.11-.19-.19-.31-.26-.17-.09-.37-.13-.56-.11s-.38.1-.52.23l-.2.14c-.45.32-.91.64-1.35.99-.64.51-1.26,1.04-1.87,1.58-.28.25-.49.6-.79.83-1.54,1.22-3.11,2.42-4.66,3.62-.05.03-.1.07-.15.11,0,0,0,.01-.01.02-.03.08-.06.2-.02.25,0,0,.02.02.03.02.07.03.14.03.21,0,.09-.05.18-.11.25-.18l4.36-3.38c.08-.06.16-.11.25-.18.02.28.13.56.3.78.17.23.41.4.67.5s.56.12.84.06c.28-.06.54-.19.74-.39.5-.48,1.02-.95,1.52-1.42l.18-.17c.31.61.28.77-.2,1.15-2.94,2.35-5.88,4.71-8.81,7.06-.12.1-.37.19-.21.4s.31,0,.43-.11c2.75-2.2,5.51-4.4,8.26-6.61.07-.06.15-.11.25-.18v.23c-.01.27.05.53.19.76.14.23.34.41.58.53.24.12.51.16.77.12.26-.04.5-.17.69-.35.57-.5,1.13-1.01,1.69-1.51.03-.03.08-.06.14-.11.08.49.06.99-.05,1.48-.03.06-.07.12-.13.16-.46.4-.93.8-1.4,1.2l-6.88,5.84c-.08.05-.15.12-.21.2-.02.03-.03.07-.03.11,0,.04,0,.08.02.11.03.02.07.04.11.05.04,0,.08,0,.12,0,.03,0,.06-.02.08-.05.03-.03.07-.06.1-.09l4.97-4.21c.24-.2.48-.4.73-.61.01.03.02.07.03.1.01.27.11.54.27.76.16.22.39.39.65.49.26.11.54.14.81.09s.52-.19.72-.39c.33-.3.66-.61.99-.91.21-.2.42-.39.65-.6.04.15.08.29.1.44.03.35-.01.7-.14,1.03-.12.33-.32.62-.58.86-.83.89-1.67,1.76-2.51,2.64-.05.06-.13.1-.16.17s-.05.2-.01.23h0c.07.04.16.05.24.04.02,0,.04-.02.06-.04.02-.02.04-.05.06-.06.68-.7,1.36-1.4,2.04-2.11.27-.28.53-.57.77-.87.31-.34.52-.77.59-1.23.08-.46.02-.93-.16-1.35-.02-.09,0-.19.05-.27.05-.08.1-.16.15-.23.17-.22.31-.46.42-.71.21-.62.53-1.21.96-1.71.19-.24.33-.53.39-.84s.05-.62-.03-.92c-.03-.11-.03-.23,0-.35.36-1.12.73-2.23,1.1-3.35l.49-1.49.15-.46c.32,0,.63,0,.93,0,.25,0,.33-.11.33-.36-.01-.98,0-1.97,0-2.95h0ZM7.32,10.86c-.16.15-.36.24-.58.27-.22.02-.43-.02-.62-.12-.19-.08-.35-.22-.46-.39-.11-.17-.16-.38-.15-.58.02-.25.13-.49.3-.68,1.11-1.05,2.31-2.01,3.58-2.85.07-.05.15-.08.23-.1.06,0,.11,0,.17,0,.07.01.13.04.19.07.12.07.21.18.27.3.06.12.09.26.07.4-.01.36-.14.7-.36.98-.78,1-1.67,1.91-2.66,2.71Zm3.71,1.38c-.12.13-.29.21-.46.23-.18.02-.36,0-.51-.1-.16-.08-.3-.21-.4-.36-.1-.15-.16-.33-.18-.51-.02-.16,0-.32.06-.47.05-.15.14-.28.26-.39,1.08-1,2.25-1.91,3.48-2.72.04-.02.07-.05.11-.07.11-.08.24-.12.37-.11.13,0,.26.05.36.14.1.08.17.2.2.32.03.12.02.26-.03.38-.15.52-.44.99-.83,1.36-.79.79-1.61,1.54-2.43,2.3h0s0,0,0,0Zm4.22.89c-.45.76-1.02,1.46-1.69,2.05-.25.24-.52.48-.79.7-.14.12-.32.2-.5.23-.18.03-.37.01-.55-.05s-.33-.18-.45-.32-.19-.32-.22-.51c-.01-.1,0-.21.03-.31.03-.1.08-.19.14-.27.97-1.05,2.08-1.97,3.3-2.73.01,0,.03,0,.05,0l.07.07c-.2.21-.4.42-.6.64-.06.08-.1.17-.14.27.1.03.23.11.31.08.34-.11.68-.25,1.05-.39l.29-.11c-.11.24-.19.46-.3.67,0,0,0,0,0,0Zm.98-1.81c-.27.34-.6.62-.98.82-.12.06-.24.13-.36.18.13-.49.25-.94.36-1.39v-.02c.11-.45.31-.87.59-1.23.17-.23.37-.14.57-.09.18.04.23.18.24.36.03.49-.12.97-.42,1.36h0s0,0,0,0Zm1.67-6.07c-.41,1.25-.83,2.5-1.23,3.75-.07.23-.18.28-.4.14l1.06-4.71.16-.72.86.2-.17.52s-.27.82-.27.82Z" fill="#1f2626"/></svg>