<?xml version="1.0" encoding="UTF-8"?>
<svg id="a" data-name="Слой 1" xmlns="http://www.w3.org/2000/svg" viewBox="0 0 120 120">
  <path d="m0,60v60h120V0H0v60Z" fill="#007acc"/>
  <path d="m26.54,60.4l-.04,4.91h15.62v44.38h11.05v-44.38h15.62v-4.82c0-2.67-.06-4.9-.13-4.95-.06-.08-9.56-.11-21.09-.1l-20.97.06-.06,4.9Z" fill="#fff"/>
  <path d="m96.83,55.36c3.05.76,5.37,2.11,7.5,4.32,1.1,1.18,2.74,3.33,2.88,3.85.04.15-5.18,3.66-8.34,5.62-.11.08-.57-.42-1.09-1.18-1.54-2.25-3.16-3.22-5.64-3.39-3.64-.25-5.98,1.66-5.96,4.84,0,.93.13,1.49.51,2.25.8,1.66,2.29,2.65,6.95,4.67,8.59,3.7,12.27,6.13,14.55,9.6,2.55,3.87,3.12,10.04,1.39,14.63-1.9,4.99-6.63,8.38-13.28,9.5-2.06.36-6.93.31-9.14-.1-4.82-.86-9.39-3.24-12.21-6.36-1.1-1.22-3.26-4.4-3.12-4.63.06-.08.55-.38,1.1-.7.53-.3,2.55-1.47,4.46-2.57l3.45-2,.72,1.07c1.01,1.54,3.22,3.66,4.55,4.36,3.83,2.02,9.09,1.73,11.68-.59,1.1-1.01,1.56-2.06,1.56-3.6,0-1.39-.17-2-.9-3.05-.93-1.33-2.84-2.46-8.25-4.8-6.19-2.67-8.86-4.32-11.3-6.95-1.41-1.52-2.74-3.96-3.3-6-.46-1.7-.57-5.94-.21-7.66,1.28-5.98,5.79-10.15,12.3-11.39,2.11-.4,7.03-.25,9.1.27Z" fill="#fff"/>
</svg>